<svg xmlns="http://www.w3.org/2000/svg" viewBox="0 0 900 480" font-family="Segoe UI,system-ui,sans-serif">
<rect width="900" height="480" fill="#080c14" rx="10"/>
<rect width="900" height="48" fill="#0d1117" stroke="#30363d" stroke-width="1"/>
<text x="24" y="21" fill="#e6edf3" font-size="13" font-weight="600">Herramientas MCP disponibles</text>
<text x="780" y="21" fill="#8b949e" font-size="11">Buscar herramienta...</text>
<text x="16" y="76" fill="#58a6ff" font-size="12" font-weight="600">Drawing (8)</text>
<line x1="16" y1="82" x2="884" y2="82" stroke="#21262d" stroke-width="1"/>
<rect x="16" y="92" width="130" height="60" rx="6" fill="#161b22" stroke="#30363d" stroke-width="1"/><text x="24" y="112" fill="#e6edf3" font-size="10" font-weight="600">draw_line</text><text x="24" y="128" fill="#8b949e" font-size="9">Draw straight line</text><rect x="24" y="136" width="42" height="12" rx="6" fill="#1f4280"/><text x="45" y="145" text-anchor="middle" fill="#79c0ff" font-size="8">Drawing</text><rect x="156" y="92" width="130" height="60" rx="6" fill="#161b22" stroke="#30363d" stroke-width="1"/><text x="164" y="112" fill="#e6edf3" font-size="10" font-weight="600">draw_circle</text><text x="164" y="128" fill="#8b949e" font-size="9">Draw circle</text><rect x="164" y="136" width="42" height="12" rx="6" fill="#1f4280"/><text x="185" y="145" text-anchor="middle" fill="#79c0ff" font-size="8">Drawing</text><rect x="296" y="92" width="130" height="60" rx="6" fill="#161b22" stroke="#30363d" stroke-width="1"/><text x="304" y="112" fill="#e6edf3" font-size="10" font-weight="600">draw_arc</text><text x="304" y="128" fill="#8b949e" font-size="9">Draw arc</text><rect x="304" y="136" width="42" height="12" rx="6" fill="#1f4280"/><text x="325" y="145" text-anchor="middle" fill="#79c0ff" font-size="8">Drawing</text><rect x="436" y="92" width="130" height="60" rx="6" fill="#161b22" stroke="#30363d" stroke-width="1"/><text x="444" y="112" fill="#e6edf3" font-size="10" font-weight="600">draw_text</text><text x="444" y="128" fill="#8b949e" font-size="9">Place text</text><rect x="444" y="136" width="42" height="12" rx="6" fill="#1f4280"/><text x="465" y="145" text-anchor="middle" fill="#79c0ff" font-size="8">Drawing</text><rect x="576" y="92" width="130" height="60" rx="6" fill="#161b22" stroke="#30363d" stroke-width="1"/><text x="584" y="112" fill="#e6edf3" font-size="10" font-weight="600">draw_rectangle</text><text x="584" y="128" fill="#8b949e" font-size="9">Rectangle</text><rect x="584" y="136" width="42" height="12" rx="6" fill="#1f4280"/><text x="605" y="145" text-anchor="middle" fill="#79c0ff" font-size="8">Drawing</text><rect x="716" y="92" width="130" height="60" rx="6" fill="#161b22" stroke="#30363d" stroke-width="1"/><text x="724" y="112" fill="#e6edf3" font-size="10" font-weight="600">draw_polyline</text><text x="724" y="128" fill="#8b949e" font-size="9">2D polyline</text><rect x="724" y="136" width="42" height="12" rx="6" fill="#1f4280"/><text x="745" y="145" text-anchor="middle" fill="#79c0ff" font-size="8">Drawing</text>
<text x="16" y="176" fill="#f0883e" font-size="12" font-weight="600">Drawing3D (9)</text>
<line x1="16" y1="182" x2="884" y2="182" stroke="#21262d" stroke-width="1"/>
<rect x="16" y="192" width="130" height="60" rx="6" fill="#161b22" stroke="#30363d" stroke-width="1"/><text x="24" y="212" fill="#e6edf3" font-size="10" font-weight="600">draw_box</text><text x="24" y="228" fill="#8b949e" font-size="9">3D solid box</text><rect x="24" y="236" width="54" height="12" rx="6" fill="#3a1a00"/><text x="51" y="245" text-anchor="middle" fill="#f0883e" font-size="8">Drawing3D</text><rect x="156" y="192" width="130" height="60" rx="6" fill="#161b22" stroke="#30363d" stroke-width="1"/><text x="164" y="212" fill="#e6edf3" font-size="10" font-weight="600">draw_sphere</text><text x="164" y="228" fill="#8b949e" font-size="9">3D sphere</text><rect x="164" y="236" width="54" height="12" rx="6" fill="#3a1a00"/><text x="191" y="245" text-anchor="middle" fill="#f0883e" font-size="8">Drawing3D</text><rect x="296" y="192" width="130" height="60" rx="6" fill="#161b22" stroke="#30363d" stroke-width="1"/><text x="304" y="212" fill="#e6edf3" font-size="10" font-weight="600">draw_cylinder</text><text x="304" y="228" fill="#8b949e" font-size="9">3D cylinder</text><rect x="304" y="236" width="54" height="12" rx="6" fill="#3a1a00"/><text x="331" y="245" text-anchor="middle" fill="#f0883e" font-size="8">Drawing3D</text><rect x="436" y="192" width="130" height="60" rx="6" fill="#161b22" stroke="#30363d" stroke-width="1"/><text x="444" y="212" fill="#e6edf3" font-size="10" font-weight="600">draw_cone</text><text x="444" y="228" fill="#8b949e" font-size="9">3D cone</text><rect x="444" y="236" width="54" height="12" rx="6" fill="#3a1a00"/><text x="471" y="245" text-anchor="middle" fill="#f0883e" font-size="8">Drawing3D</text><rect x="576" y="192" width="130" height="60" rx="6" fill="#161b22" stroke="#30363d" stroke-width="1"/><text x="584" y="212" fill="#e6edf3" font-size="10" font-weight="600">draw_line_3d</text><text x="584" y="228" fill="#8b949e" font-size="9">3D line XYZ</text><rect x="584" y="236" width="54" height="12" rx="6" fill="#3a1a00"/><text x="611" y="245" text-anchor="middle" fill="#f0883e" font-size="8">Drawing3D</text><rect x="716" y="192" width="130" height="60" rx="6" fill="#161b22" stroke="#30363d" stroke-width="1"/><text x="724" y="212" fill="#e6edf3" font-size="10" font-weight="600">zoom_3d_view</text><text x="724" y="228" fill="#8b949e" font-size="9">3D viewport</text><rect x="724" y="236" width="54" height="12" rx="6" fill="#3a1a00"/><text x="751" y="245" text-anchor="middle" fill="#f0883e" font-size="8">Drawing3D</text>
<text x="16" y="276" fill="#f0883e" font-size="12" font-weight="600">Electrical (7)</text>
<line x1="16" y1="282" x2="884" y2="282" stroke="#21262d" stroke-width="1"/>
<rect x="16" y="292" width="130" height="60" rx="6" fill="#161b22" stroke="#30363d" stroke-width="1"/><text x="24" y="312" fill="#e6edf3" font-size="10" font-weight="600">insert_electrical_symbol</text><text x="24" y="328" fill="#8b949e" font-size="9"></text><rect x="24" y="336" width="60" height="12" rx="6" fill="#3a1500"/><text x="54" y="345" text-anchor="middle" fill="#f0883e" font-size="8">Electrical</text><rect x="156" y="292" width="130" height="60" rx="6" fill="#161b22" stroke="#30363d" stroke-width="1"/><text x="164" y="312" fill="#e6edf3" font-size="10" font-weight="600">insert_ladder</text><text x="164" y="328" fill="#8b949e" font-size="9"></text><rect x="164" y="336" width="60" height="12" rx="6" fill="#3a1500"/><text x="194" y="345" text-anchor="middle" fill="#f0883e" font-size="8">Electrical</text><rect x="296" y="292" width="130" height="60" rx="6" fill="#161b22" stroke="#30363d" stroke-width="1"/><text x="304" y="312" fill="#e6edf3" font-size="10" font-weight="600">get_symbol_list</text><text x="304" y="328" fill="#8b949e" font-size="9"></text><rect x="304" y="336" width="60" height="12" rx="6" fill="#3a1500"/><text x="334" y="345" text-anchor="middle" fill="#f0883e" font-size="8">Electrical</text><rect x="436" y="292" width="130" height="60" rx="6" fill="#161b22" stroke="#30363d" stroke-width="1"/><text x="444" y="312" fill="#e6edf3" font-size="10" font-weight="600">set_wire_number</text><text x="444" y="328" fill="#8b949e" font-size="9"></text><rect x="444" y="336" width="60" height="12" rx="6" fill="#3a1500"/><text x="474" y="345" text-anchor="middle" fill="#f0883e" font-size="8">Electrical</text><rect x="576" y="292" width="130" height="60" rx="6" fill="#161b22" stroke="#30363d" stroke-width="1"/><text x="584" y="312" fill="#e6edf3" font-size="10" font-weight="600">insert_plc_module</text><text x="584" y="328" fill="#8b949e" font-size="9"></text><rect x="584" y="336" width="60" height="12" rx="6" fill="#3a1500"/><text x="614" y="345" text-anchor="middle" fill="#f0883e" font-size="8">Electrical</text>
<rect x="16" y="380" width="868" height="60" rx="8" fill="#161b22" stroke="#30363d"/>
<text x="450" y="402" text-anchor="middle" fill="#8b949e" font-size="11">Total registered tools</text>
<text x="450" y="428" text-anchor="middle" fill="#58a6ff" font-size="24" font-weight="700">46 tools</text>
<text x="700" y="400" fill="#484f58" font-size="10">Drawing:8  3D:9  Electrical:7</text>
<text x="700" y="418" fill="#484f58" font-size="10">Wires:5  Components:6  Reports:5  Project:6</text>
</svg>